<svg width="377" height="104" viewBox="0 0 377 104" fill="none" xmlns="http://www.w3.org/2000/svg">
<path d="M32.1645 13.7568C32.4045 13.7568 32.6045 13.8502 32.7645 14.0368C32.9511 14.1968 33.0445 14.3968 33.0445 14.6368L33.0045 14.9168L23.8045 40.4368C23.6711 40.8102 23.4578 41.1302 23.1645 41.3968C22.8711 41.6368 22.4845 41.7568 22.0045 41.7568H12.6845C12.2045 41.7568 11.8178 41.6368 11.5245 41.3968C11.2311 41.1302 11.0311 40.8502 10.9245 40.5568L1.64446 14.9168L1.60446 14.6368C1.60446 14.3968 1.68446 14.1968 1.84446 14.0368C2.03113 13.8502 2.24446 13.7568 2.48446 13.7568H10.9245C11.4045 13.7568 11.7911 13.9035 12.0845 14.1968C12.4045 14.4635 12.6178 14.7568 12.7245 15.0768L17.3245 30.3968L21.9245 15.0768C22.0311 14.7302 22.2311 14.4235 22.5245 14.1568C22.8178 13.8902 23.2178 13.7568 23.7245 13.7568H32.1645ZM66.1888 30.1968C66.1888 34.2768 64.8288 37.2902 62.1088 39.2368C59.4155 41.1835 55.8155 42.1568 51.3088 42.1568C46.8022 42.1568 43.1888 41.1835 40.4688 39.2368C37.7755 37.2902 36.4288 34.2502 36.4288 30.1168V25.3968C36.4288 22.6768 37.0688 20.4235 38.3488 18.6368C39.6555 16.8235 41.4288 15.4902 43.6688 14.6368C45.9088 13.7835 48.4555 13.3568 51.3088 13.3568C54.1622 13.3568 56.6955 13.7835 58.9088 14.6368C61.1488 15.4902 62.9222 16.8102 64.2288 18.5968C65.5355 20.3835 66.1888 22.6235 66.1888 25.3168V30.1968ZM47.2288 30.9568C47.2288 32.0502 47.5888 32.8902 48.3088 33.4768C49.0555 34.0635 50.0555 34.3568 51.3088 34.3568C52.5622 34.3568 53.5488 34.0635 54.2688 33.4768C55.0155 32.8635 55.3888 32.0102 55.3888 30.9168V24.5968C55.3888 23.5035 55.0155 22.6635 54.2688 22.0768C53.5488 21.4635 52.5622 21.1568 51.3088 21.1568C50.0555 21.1568 49.0555 21.4502 48.3088 22.0368C47.5888 22.6235 47.2288 23.4635 47.2288 24.5568V30.9568ZM99.0932 13.7568C99.3865 13.7568 99.6399 13.8635 99.8532 14.0768C100.067 14.2902 100.173 14.5435 100.173 14.8368V21.2768C100.173 21.5702 100.067 21.8235 99.8532 22.0368C99.6399 22.2502 99.3865 22.3568 99.0932 22.3568H90.4932V40.6768C90.4932 40.9702 90.3865 41.2235 90.1732 41.4368C89.9599 41.6502 89.7065 41.7568 89.4132 41.7568H81.1732C80.8799 41.7568 80.6265 41.6502 80.4132 41.4368C80.1999 41.2235 80.0932 40.9702 80.0932 40.6768V22.3568H71.4932C71.1999 22.3568 70.9465 22.2502 70.7332 22.0368C70.5199 21.8235 70.4132 21.5702 70.4132 21.2768V14.8368C70.4132 14.5435 70.5199 14.2902 70.7332 14.0768C70.9465 13.8635 71.1999 13.7568 71.4932 13.7568H99.0932ZM132.238 33.9568C132.531 33.9568 132.784 34.0635 132.998 34.2768C133.211 34.4902 133.318 34.7435 133.318 35.0368V40.6768C133.318 40.9702 133.211 41.2235 132.998 41.4368C132.784 41.6502 132.531 41.7568 132.238 41.7568H106.958C106.664 41.7568 106.411 41.6502 106.198 41.4368C105.984 41.2235 105.878 40.9702 105.878 40.6768V14.8368C105.878 14.5435 105.984 14.2902 106.198 14.0768C106.411 13.8635 106.664 13.7568 106.958 13.7568H131.838C132.131 13.7568 132.384 13.8635 132.598 14.0768C132.811 14.2902 132.918 14.5435 132.918 14.8368V20.4768C132.918 20.7702 132.811 21.0235 132.598 21.2368C132.384 21.4502 132.131 21.5568 131.838 21.5568L116.278 21.5568V24.0768L129.638 24.0768C129.931 24.0768 130.184 24.1835 130.398 24.3968C130.611 24.6102 130.718 24.8635 130.718 25.1568V30.3568C130.718 30.6502 130.611 30.9035 130.398 31.1168C130.184 31.3302 129.931 31.4368 129.638 31.4368L116.278 31.4368V33.9568H132.238ZM98.8132 63.7568C99.1065 63.7568 99.3599 63.8635 99.5732 64.0768C99.7865 64.2902 99.8932 64.5435 99.8932 64.8368V70.9168C99.8932 71.2102 99.7865 71.4635 99.5732 71.6768C99.3599 71.8902 99.1065 71.9968 98.8132 71.9968H83.0932V74.5568H96.2132C96.5065 74.5568 96.7599 74.6635 96.9732 74.8768C97.1865 75.0902 97.2932 75.3435 97.2932 75.6368V81.6768C97.2932 81.9702 97.1865 82.2235 96.9732 82.4368C96.7599 82.6502 96.5065 82.7568 96.2132 82.7568H83.0932V90.6768C83.0932 90.9702 82.9865 91.2235 82.7732 91.4368C82.5599 91.6502 82.3065 91.7568 82.0132 91.7568H73.3732C73.0799 91.7568 72.8265 91.6502 72.6132 91.4368C72.3999 91.2235 72.2932 90.9702 72.2932 90.6768V64.8368C72.2932 64.5435 72.3999 64.2902 72.6132 64.0768C72.8265 63.8635 73.0799 63.7568 73.3732 63.7568H98.8132ZM134.158 80.1968C134.158 84.2768 132.798 87.2902 130.078 89.2368C127.384 91.1835 123.784 92.1568 119.278 92.1568C114.771 92.1568 111.158 91.1835 108.438 89.2368C105.744 87.2902 104.398 84.2502 104.398 80.1168V75.3968C104.398 72.6768 105.038 70.4235 106.318 68.6368C107.624 66.8235 109.398 65.4902 111.638 64.6368C113.878 63.7835 116.424 63.3568 119.278 63.3568C122.131 63.3568 124.664 63.7835 126.878 64.6368C129.118 65.4902 130.891 66.8102 132.198 68.5968C133.504 70.3835 134.158 72.6235 134.158 75.3168V80.1968ZM115.198 80.9568C115.198 82.0502 115.558 82.8902 116.278 83.4768C117.024 84.0635 118.024 84.3568 119.278 84.3568C120.531 84.3568 121.518 84.0635 122.238 83.4768C122.984 82.8635 123.358 82.0102 123.358 80.9168V74.5968C123.358 73.5035 122.984 72.6635 122.238 72.0768C121.518 71.4635 120.531 71.1568 119.278 71.1568C118.024 71.1568 117.024 71.4502 116.278 72.0368C115.558 72.6235 115.198 73.4635 115.198 74.5568V80.9568ZM169.142 90.5168C169.195 90.6235 169.222 90.7435 169.222 90.8768C169.222 91.1168 169.129 91.3302 168.942 91.5168C168.782 91.6768 168.582 91.7568 168.342 91.7568H159.262C158.889 91.7568 158.542 91.6635 158.222 91.4768C157.929 91.2902 157.715 91.0502 157.582 90.7568L154.062 82.8368H150.702V90.6768C150.702 90.9702 150.595 91.2235 150.382 91.4368C150.169 91.6502 149.915 91.7568 149.622 91.7568H140.982C140.689 91.7568 140.435 91.6502 140.222 91.4368C140.009 91.2235 139.902 90.9702 139.902 90.6768V64.8368C139.902 64.5435 140.009 64.2902 140.222 64.0768C140.435 63.8635 140.689 63.7568 140.982 63.7568H156.542C158.942 63.7568 161.035 64.1435 162.822 64.9168C164.635 65.6902 166.022 66.8102 166.982 68.2768C167.942 69.7435 168.422 71.4635 168.422 73.4368C168.422 77.0635 167.022 79.6902 164.222 81.3168L169.142 90.5168ZM155.702 75.4368C156.289 75.4368 156.742 75.2502 157.062 74.8768C157.382 74.4768 157.542 73.9835 157.542 73.3968C157.542 72.8102 157.382 72.3035 157.062 71.8768C156.769 71.4235 156.315 71.1968 155.702 71.1968H150.702V75.4368H155.702ZM226.471 64.8368C226.871 64.1168 227.444 63.7568 228.191 63.7568H235.511C235.804 63.7568 236.057 63.8635 236.271 64.0768C236.484 64.2902 236.591 64.5435 236.591 64.8368V90.6768C236.591 90.9702 236.484 91.2235 236.271 91.4368C236.057 91.6502 235.804 91.7568 235.511 91.7568H228.271C227.977 91.7568 227.724 91.6502 227.511 91.4368C227.297 91.2235 227.191 90.9702 227.191 90.6768V78.2768L224.271 84.0368C224.191 84.2235 224.004 84.4368 223.711 84.6768C223.417 84.9168 223.044 85.0368 222.591 85.0368H219.871C219.417 85.0368 219.044 84.9168 218.751 84.6768C218.457 84.4368 218.271 84.2235 218.191 84.0368L215.271 78.2768V90.6768C215.271 90.9702 215.164 91.2235 214.951 91.4368C214.737 91.6502 214.484 91.7568 214.191 91.7568H206.951C206.657 91.7568 206.404 91.6502 206.191 91.4368C205.977 91.2235 205.871 90.9702 205.871 90.6768V64.8368C205.871 64.5435 205.977 64.2902 206.191 64.0768C206.404 63.8635 206.657 63.7568 206.951 63.7568H214.271C215.017 63.7568 215.591 64.1168 215.991 64.8368L221.231 74.4368L226.471 64.8368ZM268.175 83.9568C268.468 83.9568 268.722 84.0635 268.935 84.2768C269.148 84.4902 269.255 84.7435 269.255 85.0368V90.6768C269.255 90.9702 269.148 91.2235 268.935 91.4368C268.722 91.6502 268.468 91.7568 268.175 91.7568H242.895C242.602 91.7568 242.348 91.6502 242.135 91.4368C241.922 91.2235 241.815 90.9702 241.815 90.6768V64.8368C241.815 64.5435 241.922 64.2902 242.135 64.0768C242.348 63.8635 242.602 63.7568 242.895 63.7568L267.775 63.7568C268.068 63.7568 268.322 63.8635 268.535 64.0768C268.748 64.2902 268.855 64.5435 268.855 64.8368V70.4768C268.855 70.7702 268.748 71.0235 268.535 71.2368C268.322 71.4502 268.068 71.5568 267.775 71.5568H252.215V74.0768H265.575C265.868 74.0768 266.122 74.1835 266.335 74.3968C266.548 74.6102 266.655 74.8635 266.655 75.1568V80.3568C266.655 80.6502 266.548 80.9035 266.335 81.1168C266.122 81.3302 265.868 81.4368 265.575 81.4368H252.215V83.9568H268.175ZM294.439 64.8368C294.839 64.1168 295.413 63.7568 296.159 63.7568H303.479C303.773 63.7568 304.026 63.8635 304.239 64.0768C304.453 64.2902 304.559 64.5435 304.559 64.8368V90.6768C304.559 90.9702 304.453 91.2235 304.239 91.4368C304.026 91.6502 303.773 91.7568 303.479 91.7568H296.239C295.946 91.7568 295.693 91.6502 295.479 91.4368C295.266 91.2235 295.159 90.9702 295.159 90.6768V78.2768L292.239 84.0368C292.159 84.2235 291.973 84.4368 291.679 84.6768C291.386 84.9168 291.013 85.0368 290.559 85.0368H287.839C287.386 85.0368 287.013 84.9168 286.719 84.6768C286.426 84.4368 286.239 84.2235 286.159 84.0368L283.239 78.2768V90.6768C283.239 90.9702 283.133 91.2235 282.919 91.4368C282.706 91.6502 282.453 91.7568 282.159 91.7568H274.919C274.626 91.7568 274.373 91.6502 274.159 91.4368C273.946 91.2235 273.839 90.9702 273.839 90.6768V64.8368C273.839 64.5435 273.946 64.2902 274.159 64.0768C274.373 63.8635 274.626 63.7568 274.919 63.7568H282.239C282.986 63.7568 283.559 64.1168 283.959 64.8368L289.199 74.4368L294.439 64.8368ZM336.144 83.9568C336.437 83.9568 336.691 84.0635 336.904 84.2768C337.117 84.4902 337.224 84.7435 337.224 85.0368V90.6768C337.224 90.9702 337.117 91.2235 336.904 91.4368C336.691 91.6502 336.437 91.7568 336.144 91.7568H310.864C310.571 91.7568 310.317 91.6502 310.104 91.4368C309.891 91.2235 309.784 90.9702 309.784 90.6768V64.8368C309.784 64.5435 309.891 64.2902 310.104 64.0768C310.317 63.8635 310.571 63.7568 310.864 63.7568H335.744C336.037 63.7568 336.291 63.8635 336.504 64.0768C336.717 64.2902 336.824 64.5435 336.824 64.8368V70.4768C336.824 70.7702 336.717 71.0235 336.504 71.2368C336.291 71.4502 336.037 71.5568 335.744 71.5568H320.184V74.0768H333.544C333.837 74.0768 334.091 74.1835 334.304 74.3968C334.517 74.6102 334.624 74.8635 334.624 75.1568V80.3568C334.624 80.6502 334.517 80.9035 334.304 81.1168C334.091 81.3302 333.837 81.4368 333.544 81.4368H320.184V83.9568H336.144ZM359.368 73.9168C362.302 74.2368 364.648 74.7568 366.408 75.4768C368.195 76.1968 369.488 77.1435 370.288 78.3168C371.088 79.4902 371.488 80.9568 371.488 82.7168C371.488 84.6368 370.862 86.3168 369.608 87.7568C368.382 89.1702 366.675 90.2635 364.488 91.0368C362.302 91.7835 359.808 92.1568 357.008 92.1568C353.888 92.1568 351.248 91.7702 349.088 90.9968C346.928 90.2235 345.315 89.1968 344.248 87.9168C343.182 86.6102 342.648 85.1835 342.648 83.6368C342.648 83.3702 342.728 83.1568 342.888 82.9968C343.075 82.8368 343.302 82.7568 343.568 82.7568H351.768C352.328 82.7568 352.782 82.9302 353.128 83.2768C353.582 83.7035 354.088 83.9968 354.648 84.1568C355.208 84.2902 355.995 84.3568 357.008 84.3568C359.542 84.3568 360.808 83.9702 360.808 83.1968C360.808 82.8768 360.635 82.6102 360.288 82.3968C359.968 82.1568 359.382 81.9568 358.528 81.7968C357.702 81.6102 356.475 81.4235 354.848 81.2368C351.195 80.8102 348.395 79.9035 346.448 78.5168C344.502 77.1035 343.528 75.1168 343.528 72.5568C343.528 70.7435 344.075 69.1435 345.168 67.7568C346.262 66.3702 347.808 65.2902 349.808 64.5168C351.835 63.7435 354.182 63.3568 356.848 63.3568C359.622 63.3568 362.048 63.7968 364.128 64.6768C366.208 65.5302 367.795 66.5968 368.888 67.8768C369.982 69.1568 370.528 70.4102 370.528 71.6368C370.528 71.9035 370.435 72.1168 370.248 72.2768C370.088 72.4368 369.862 72.5168 369.568 72.5168H360.968C360.515 72.5168 360.102 72.3568 359.728 72.0368C359.435 71.7702 359.088 71.5568 358.688 71.3968C358.288 71.2368 357.675 71.1568 356.848 71.1568C355.062 71.1568 354.168 71.5302 354.168 72.2768C354.168 72.6768 354.515 72.9968 355.208 73.2368C355.902 73.4502 357.288 73.6768 359.368 73.9168Z" fill="#DEEDFF"/>
<path d="M34.1645 10.7568C34.4045 10.7568 34.6045 10.8502 34.7645 11.0368C34.9511 11.1968 35.0445 11.3968 35.0445 11.6368L35.0045 11.9168L25.8045 37.4368C25.6711 37.8102 25.4578 38.1302 25.1645 38.3968C24.8711 38.6368 24.4845 38.7568 24.0045 38.7568H14.6845C14.2045 38.7568 13.8178 38.6368 13.5245 38.3968C13.2311 38.1302 13.0311 37.8502 12.9245 37.5568L3.64446 11.9168L3.60446 11.6368C3.60446 11.3968 3.68446 11.1968 3.84446 11.0368C4.03113 10.8502 4.24446 10.7568 4.48446 10.7568H12.9245C13.4045 10.7568 13.7911 10.9035 14.0845 11.1968C14.4045 11.4635 14.6178 11.7568 14.7245 12.0768L19.3245 27.3968L23.9245 12.0768C24.0311 11.7302 24.2311 11.4235 24.5245 11.1568C24.8178 10.8902 25.2178 10.7568 25.7245 10.7568H34.1645ZM68.1888 27.1968C68.1888 31.2768 66.8288 34.2902 64.1088 36.2368C61.4155 38.1835 57.8155 39.1568 53.3088 39.1568C48.8022 39.1568 45.1888 38.1835 42.4688 36.2368C39.7755 34.2902 38.4288 31.2502 38.4288 27.1168V22.3968C38.4288 19.6768 39.0688 17.4235 40.3488 15.6368C41.6555 13.8235 43.4288 12.4902 45.6688 11.6368C47.9088 10.7835 50.4555 10.3568 53.3088 10.3568C56.1622 10.3568 58.6955 10.7835 60.9088 11.6368C63.1488 12.4902 64.9222 13.8102 66.2288 15.5968C67.5355 17.3835 68.1888 19.6235 68.1888 22.3168V27.1968ZM49.2288 27.9568C49.2288 29.0502 49.5888 29.8902 50.3088 30.4768C51.0555 31.0635 52.0555 31.3568 53.3088 31.3568C54.5622 31.3568 55.5488 31.0635 56.2688 30.4768C57.0155 29.8635 57.3888 29.0102 57.3888 27.9168V21.5968C57.3888 20.5035 57.0155 19.6635 56.2688 19.0768C55.5488 18.4635 54.5622 18.1568 53.3088 18.1568C52.0555 18.1568 51.0555 18.4502 50.3088 19.0368C49.5888 19.6235 49.2288 20.4635 49.2288 21.5568V27.9568ZM101.093 10.7568C101.387 10.7568 101.64 10.8635 101.853 11.0768C102.067 11.2902 102.173 11.5435 102.173 11.8368V18.2768C102.173 18.5702 102.067 18.8235 101.853 19.0368C101.64 19.2502 101.387 19.3568 101.093 19.3568H92.4932V37.6768C92.4932 37.9702 92.3865 38.2235 92.1732 38.4368C91.9599 38.6502 91.7065 38.7568 91.4132 38.7568H83.1732C82.8799 38.7568 82.6265 38.6502 82.4132 38.4368C82.1999 38.2235 82.0932 37.9702 82.0932 37.6768V19.3568H73.4932C73.1999 19.3568 72.9465 19.2502 72.7332 19.0368C72.5199 18.8235 72.4132 18.5702 72.4132 18.2768V11.8368C72.4132 11.5435 72.5199 11.2902 72.7332 11.0768C72.9465 10.8635 73.1999 10.7568 73.4932 10.7568H101.093ZM134.238 30.9568C134.531 30.9568 134.784 31.0635 134.998 31.2768C135.211 31.4902 135.318 31.7435 135.318 32.0368V37.6768C135.318 37.9702 135.211 38.2235 134.998 38.4368C134.784 38.6502 134.531 38.7568 134.238 38.7568H108.958C108.664 38.7568 108.411 38.6502 108.198 38.4368C107.984 38.2235 107.878 37.9702 107.878 37.6768V11.8368C107.878 11.5435 107.984 11.2902 108.198 11.0768C108.411 10.8635 108.664 10.7568 108.958 10.7568H133.838C134.131 10.7568 134.384 10.8635 134.598 11.0768C134.811 11.2902 134.918 11.5435 134.918 11.8368V17.4768C134.918 17.7702 134.811 18.0235 134.598 18.2368C134.384 18.4502 134.131 18.5568 133.838 18.5568L118.278 18.5568V21.0768L131.638 21.0768C131.931 21.0768 132.184 21.1835 132.398 21.3968C132.611 21.6102 132.718 21.8635 132.718 22.1568V27.3568C132.718 27.6502 132.611 27.9035 132.398 28.1168C132.184 28.3302 131.931 28.4368 131.638 28.4368L118.278 28.4368V30.9568L134.238 30.9568ZM100.813 60.7568C101.107 60.7568 101.36 60.8635 101.573 61.0768C101.787 61.2902 101.893 61.5435 101.893 61.8368V67.9168C101.893 68.2102 101.787 68.4635 101.573 68.6768C101.36 68.8902 101.107 68.9968 100.813 68.9968H85.0932V71.5568H98.2132C98.5065 71.5568 98.7599 71.6635 98.9732 71.8768C99.1865 72.0902 99.2932 72.3435 99.2932 72.6368V78.6768C99.2932 78.9702 99.1865 79.2235 98.9732 79.4368C98.7599 79.6502 98.5065 79.7568 98.2132 79.7568H85.0932V87.6768C85.0932 87.9702 84.9865 88.2235 84.7732 88.4368C84.5599 88.6502 84.3065 88.7568 84.0132 88.7568H75.3732C75.0799 88.7568 74.8265 88.6502 74.6132 88.4368C74.3999 88.2235 74.2932 87.9702 74.2932 87.6768V61.8368C74.2932 61.5435 74.3999 61.2902 74.6132 61.0768C74.8265 60.8635 75.0799 60.7568 75.3732 60.7568H100.813ZM136.158 77.1968C136.158 81.2768 134.798 84.2902 132.078 86.2368C129.384 88.1835 125.784 89.1568 121.278 89.1568C116.771 89.1568 113.158 88.1835 110.438 86.2368C107.744 84.2902 106.398 81.2502 106.398 77.1168V72.3968C106.398 69.6768 107.038 67.4235 108.318 65.6368C109.624 63.8235 111.398 62.4902 113.638 61.6368C115.878 60.7835 118.424 60.3568 121.278 60.3568C124.131 60.3568 126.664 60.7835 128.878 61.6368C131.118 62.4902 132.891 63.8102 134.198 65.5968C135.504 67.3835 136.158 69.6235 136.158 72.3168V77.1968ZM117.198 77.9568C117.198 79.0502 117.558 79.8902 118.278 80.4768C119.024 81.0635 120.024 81.3568 121.278 81.3568C122.531 81.3568 123.518 81.0635 124.238 80.4768C124.984 79.8635 125.358 79.0102 125.358 77.9168V71.5968C125.358 70.5035 124.984 69.6635 124.238 69.0768C123.518 68.4635 122.531 68.1568 121.278 68.1568C120.024 68.1568 119.024 68.4502 118.278 69.0368C117.558 69.6235 117.198 70.4635 117.198 71.5568V77.9568ZM171.142 87.5168C171.195 87.6235 171.222 87.7435 171.222 87.8768C171.222 88.1168 171.129 88.3302 170.942 88.5168C170.782 88.6768 170.582 88.7568 170.342 88.7568H161.262C160.889 88.7568 160.542 88.6635 160.222 88.4768C159.929 88.2902 159.715 88.0502 159.582 87.7568L156.062 79.8368H152.702V87.6768C152.702 87.9702 152.595 88.2235 152.382 88.4368C152.169 88.6502 151.915 88.7568 151.622 88.7568H142.982C142.689 88.7568 142.435 88.6502 142.222 88.4368C142.009 88.2235 141.902 87.9702 141.902 87.6768V61.8368C141.902 61.5435 142.009 61.2902 142.222 61.0768C142.435 60.8635 142.689 60.7568 142.982 60.7568H158.542C160.942 60.7568 163.035 61.1435 164.822 61.9168C166.635 62.6902 168.022 63.8102 168.982 65.2768C169.942 66.7435 170.422 68.4635 170.422 70.4368C170.422 74.0635 169.022 76.6902 166.222 78.3168L171.142 87.5168ZM157.702 72.4368C158.289 72.4368 158.742 72.2502 159.062 71.8768C159.382 71.4768 159.542 70.9835 159.542 70.3968C159.542 69.8102 159.382 69.3035 159.062 68.8768C158.769 68.4235 158.315 68.1968 157.702 68.1968H152.702V72.4368H157.702ZM228.471 61.8368C228.871 61.1168 229.444 60.7568 230.191 60.7568H237.511C237.804 60.7568 238.057 60.8635 238.271 61.0768C238.484 61.2902 238.591 61.5435 238.591 61.8368V87.6768C238.591 87.9702 238.484 88.2235 238.271 88.4368C238.057 88.6502 237.804 88.7568 237.511 88.7568H230.271C229.977 88.7568 229.724 88.6502 229.511 88.4368C229.297 88.2235 229.191 87.9702 229.191 87.6768V75.2768L226.271 81.0368C226.191 81.2235 226.004 81.4368 225.711 81.6768C225.417 81.9168 225.044 82.0368 224.591 82.0368H221.871C221.417 82.0368 221.044 81.9168 220.751 81.6768C220.457 81.4368 220.271 81.2235 220.191 81.0368L217.271 75.2768V87.6768C217.271 87.9702 217.164 88.2235 216.951 88.4368C216.737 88.6502 216.484 88.7568 216.191 88.7568H208.951C208.657 88.7568 208.404 88.6502 208.191 88.4368C207.977 88.2235 207.871 87.9702 207.871 87.6768V61.8368C207.871 61.5435 207.977 61.2902 208.191 61.0768C208.404 60.8635 208.657 60.7568 208.951 60.7568H216.271C217.017 60.7568 217.591 61.1168 217.991 61.8368L223.231 71.4368L228.471 61.8368ZM270.175 80.9568C270.468 80.9568 270.722 81.0635 270.935 81.2768C271.148 81.4902 271.255 81.7435 271.255 82.0368V87.6768C271.255 87.9702 271.148 88.2235 270.935 88.4368C270.722 88.6502 270.468 88.7568 270.175 88.7568H244.895C244.602 88.7568 244.348 88.6502 244.135 88.4368C243.922 88.2235 243.815 87.9702 243.815 87.6768V61.8368C243.815 61.5435 243.922 61.2902 244.135 61.0768C244.348 60.8635 244.602 60.7568 244.895 60.7568L269.775 60.7568C270.068 60.7568 270.322 60.8635 270.535 61.0768C270.748 61.2902 270.855 61.5435 270.855 61.8368V67.4768C270.855 67.7702 270.748 68.0235 270.535 68.2368C270.322 68.4502 270.068 68.5568 269.775 68.5568H254.215V71.0768H267.575C267.868 71.0768 268.122 71.1835 268.335 71.3968C268.548 71.6102 268.655 71.8635 268.655 72.1568V77.3568C268.655 77.6502 268.548 77.9035 268.335 78.1168C268.122 78.3302 267.868 78.4368 267.575 78.4368H254.215V80.9568H270.175ZM296.439 61.8368C296.839 61.1168 297.413 60.7568 298.159 60.7568H305.479C305.773 60.7568 306.026 60.8635 306.239 61.0768C306.453 61.2902 306.559 61.5435 306.559 61.8368V87.6768C306.559 87.9702 306.453 88.2235 306.239 88.4368C306.026 88.6502 305.773 88.7568 305.479 88.7568H298.239C297.946 88.7568 297.693 88.6502 297.479 88.4368C297.266 88.2235 297.159 87.9702 297.159 87.6768V75.2768L294.239 81.0368C294.159 81.2235 293.973 81.4368 293.679 81.6768C293.386 81.9168 293.013 82.0368 292.559 82.0368H289.839C289.386 82.0368 289.013 81.9168 288.719 81.6768C288.426 81.4368 288.239 81.2235 288.159 81.0368L285.239 75.2768V87.6768C285.239 87.9702 285.133 88.2235 284.919 88.4368C284.706 88.6502 284.453 88.7568 284.159 88.7568H276.919C276.626 88.7568 276.373 88.6502 276.159 88.4368C275.946 88.2235 275.839 87.9702 275.839 87.6768V61.8368C275.839 61.5435 275.946 61.2902 276.159 61.0768C276.373 60.8635 276.626 60.7568 276.919 60.7568H284.239C284.986 60.7568 285.559 61.1168 285.959 61.8368L291.199 71.4368L296.439 61.8368ZM338.144 80.9568C338.437 80.9568 338.691 81.0635 338.904 81.2768C339.117 81.4902 339.224 81.7435 339.224 82.0368V87.6768C339.224 87.9702 339.117 88.2235 338.904 88.4368C338.691 88.6502 338.437 88.7568 338.144 88.7568H312.864C312.571 88.7568 312.317 88.6502 312.104 88.4368C311.891 88.2235 311.784 87.9702 311.784 87.6768V61.8368C311.784 61.5435 311.891 61.2902 312.104 61.0768C312.317 60.8635 312.571 60.7568 312.864 60.7568H337.744C338.037 60.7568 338.291 60.8635 338.504 61.0768C338.717 61.2902 338.824 61.5435 338.824 61.8368V67.4768C338.824 67.7702 338.717 68.0235 338.504 68.2368C338.291 68.4502 338.037 68.5568 337.744 68.5568H322.184V71.0768H335.544C335.837 71.0768 336.091 71.1835 336.304 71.3968C336.517 71.6102 336.624 71.8635 336.624 72.1568V77.3568C336.624 77.6502 336.517 77.9035 336.304 78.1168C336.091 78.3302 335.837 78.4368 335.544 78.4368H322.184V80.9568H338.144ZM361.368 70.9168C364.302 71.2368 366.648 71.7568 368.408 72.4768C370.195 73.1968 371.488 74.1435 372.288 75.3168C373.088 76.4902 373.488 77.9568 373.488 79.7168C373.488 81.6368 372.862 83.3168 371.608 84.7568C370.382 86.1702 368.675 87.2635 366.488 88.0368C364.302 88.7835 361.808 89.1568 359.008 89.1568C355.888 89.1568 353.248 88.7702 351.088 87.9968C348.928 87.2235 347.315 86.1968 346.248 84.9168C345.182 83.6102 344.648 82.1835 344.648 80.6368C344.648 80.3702 344.728 80.1568 344.888 79.9968C345.075 79.8368 345.302 79.7568 345.568 79.7568H353.768C354.328 79.7568 354.782 79.9302 355.128 80.2768C355.582 80.7035 356.088 80.9968 356.648 81.1568C357.208 81.2902 357.995 81.3568 359.008 81.3568C361.542 81.3568 362.808 80.9702 362.808 80.1968C362.808 79.8768 362.635 79.6102 362.288 79.3968C361.968 79.1568 361.382 78.9568 360.528 78.7968C359.702 78.6102 358.475 78.4235 356.848 78.2368C353.195 77.8102 350.395 76.9035 348.448 75.5168C346.502 74.1035 345.528 72.1168 345.528 69.5568C345.528 67.7435 346.075 66.1435 347.168 64.7568C348.262 63.3702 349.808 62.2902 351.808 61.5168C353.835 60.7435 356.182 60.3568 358.848 60.3568C361.622 60.3568 364.048 60.7968 366.128 61.6768C368.208 62.5302 369.795 63.5968 370.888 64.8768C371.982 66.1568 372.528 67.4102 372.528 68.6368C372.528 68.9035 372.435 69.1168 372.248 69.2768C372.088 69.4368 371.862 69.5168 371.568 69.5168H362.968C362.515 69.5168 362.102 69.3568 361.728 69.0368C361.435 68.7702 361.088 68.5568 360.688 68.3968C360.288 68.2368 359.675 68.1568 358.848 68.1568C357.062 68.1568 356.168 68.5302 356.168 69.2768C356.168 69.6768 356.515 69.9968 357.208 70.2368C357.902 70.4502 359.288 70.6768 361.368 70.9168Z" fill="#14070F"/>
</svg>
